<svg width="20" height="20" viewBox="0 0 20 20" fill="none" xmlns="http://www.w3.org/2000/svg">
  <g id="linkedin">
    <path id="linkedin_2" d="M2.284 18.4H0.169V6.438H2.284zM1.227 4.427a1.708 1.708 0 1 1 0-3.415 1.708 1.708 0 0 1 0 3.415zM19.5 18.4h-2.28V10.32c0-1.71-.612-2.88-2.136-2.88-1.162 0-1.849.778-2.153 1.529-.11.271-.137.646-.137 1.025v8.406h-2.278V10.32c0-1.71-.612-2.88-2.136-2.88-1.162 0-1.849.778-2.153 1.529-.11.271-.137.646-.137 1.025v8.406H7.14V6.438h2.173v1.638h.031c.303-.486 1.046-1.179 2.25-1.179 1.643 0 2.878 1.057 2.878 3.331v8.172z"/>
  </g>
</svg>
